<?xml version="1.0" encoding="utf-8" standalone="no"?>
<!DOCTYPE svg PUBLIC "-//W3C//DTD SVG 1.1//EN"
  "http://www.w3.org/Graphics/SVG/1.1/DTD/svg11.dtd">
<svg xmlns:xlink="http://www.w3.org/1999/xlink" width="1152pt" height="720pt" viewBox="0 0 1152 720" xmlns="http://www.w3.org/2000/svg" version="1.1">
 <metadata>
  <rdf:RDF xmlns:dc="http://purl.org/dc/elements/1.1/" xmlns:cc="http://creativecommons.org/ns#" xmlns:rdf="http://www.w3.org/1999/02/22-rdf-syntax-ns#">
   <cc:Work>
    <dc:type rdf:resource="http://purl.org/dc/dcmitype/StillImage"/>
    <dc:date>2025-08-22T13:53:28.071849</dc:date>
    <dc:format>image/svg+xml</dc:format>
    <dc:creator>
     <cc:Agent>
      <dc:title>Matplotlib v3.10.5, https://matplotlib.org/</dc:title>
     </cc:Agent>
    </dc:creator>
   </cc:Work>
  </rdf:RDF>
 </metadata>
 <defs>
  <style type="text/css">*{stroke-linejoin: round; stroke-linecap: butt}</style>
 </defs>
 <g id="figure_1">
  <g id="patch_1">
   <path d="M 0 720 
L 1152 720 
L 1152 0 
L 0 0 
z
" style="fill: #ffffff"/>
  </g>
  <g id="axes_1">
   <g id="patch_2">
    <path d="M 144 640.8 
L 1036.8 640.8 
L 1036.8 86.4 
L 144 86.4 
z
" style="fill: #ffffff"/>
   </g>
   <g id="matplotlib.axis_1">
    <g id="xtick_1">
     <g id="line2d_1">
      <defs>
       <path id="md50129da3d" d="M 0 0 
L 0 3.5 
" style="stroke: #000000; stroke-width: 0.8"/>
      </defs>
      <g>
       <use xlink:href="#md50129da3d" x="144" y="640.8" style="stroke: #000000; stroke-width: 0.8"/>
      </g>
     </g>
     <g id="text_1">
      <!-- 0 -->
      <g transform="translate(140.81875 655.398438) scale(0.1 -0.1)">
       <defs>
        <path id="DejaVuSans-30" d="M 2034 4250 
Q 1547 4250 1301 3770 
Q 1056 3291 1056 2328 
Q 1056 1369 1301 889 
Q 1547 409 2034 409 
Q 2525 409 2770 889 
Q 3016 1369 3016 2328 
Q 3016 3291 2770 3770 
Q 2525 4250 2034 4250 
z
M 2034 4750 
Q 2819 4750 3233 4129 
Q 3647 3509 3647 2328 
Q 3647 1150 3233 529 
Q 2819 -91 2034 -91 
Q 1250 -91 836 529 
Q 422 1150 422 2328 
Q 422 3509 836 4129 
Q 1250 4750 2034 4750 
z
" transform="scale(0.015625)"/>
       </defs>
       <use xlink:href="#DejaVuSans-30"/>
      </g>
     </g>
    </g>
    <g id="xtick_2">
     <g id="line2d_2">
      <g>
       <use xlink:href="#md50129da3d" x="243.2" y="640.8" style="stroke: #000000; stroke-width: 0.8"/>
      </g>
     </g>
     <g id="text_2">
      <!-- 5 -->
      <g transform="translate(240.01875 655.398438) scale(0.1 -0.1)">
       <defs>
        <path id="DejaVuSans-35" d="M 691 4666 
L 3169 4666 
L 3169 4134 
L 1269 4134 
L 1269 2991 
Q 1406 3038 1543 3061 
Q 1681 3084 1819 3084 
Q 2600 3084 3056 2656 
Q 3513 2228 3513 1497 
Q 3513 744 3044 326 
Q 2575 -91 1722 -91 
Q 1428 -91 1123 -41 
Q 819 9 494 109 
L 494 744 
Q 775 591 1075 516 
Q 1375 441 1709 441 
Q 2250 441 2565 725 
Q 2881 1009 2881 1497 
Q 2881 1984 2565 2268 
Q 2250 2553 1709 2553 
Q 1456 2553 1204 2497 
Q 953 2441 691 2322 
L 691 4666 
z
" transform="scale(0.015625)"/>
       </defs>
       <use xlink:href="#DejaVuSans-35"/>
      </g>
     </g>
    </g>
    <g id="xtick_3">
     <g id="line2d_3">
      <g>
       <use xlink:href="#md50129da3d" x="342.4" y="640.8" style="stroke: #000000; stroke-width: 0.8"/>
      </g>
     </g>
     <g id="text_3">
      <!-- 10 -->
      <g transform="translate(336.0375 655.398438) scale(0.1 -0.1)">
       <defs>
        <path id="DejaVuSans-31" d="M 794 531 
L 1825 531 
L 1825 4091 
L 703 3866 
L 703 4441 
L 1819 4666 
L 2450 4666 
L 2450 531 
L 3481 531 
L 3481 0 
L 794 0 
L 794 531 
z
" transform="scale(0.015625)"/>
       </defs>
       <use xlink:href="#DejaVuSans-31"/>
       <use xlink:href="#DejaVuSans-30" transform="translate(63.623047 0)"/>
      </g>
     </g>
    </g>
    <g id="xtick_4">
     <g id="line2d_4">
      <g>
       <use xlink:href="#md50129da3d" x="441.6" y="640.8" style="stroke: #000000; stroke-width: 0.8"/>
      </g>
     </g>
     <g id="text_4">
      <!-- 15 -->
      <g transform="translate(435.2375 655.398438) scale(0.1 -0.1)">
       <use xlink:href="#DejaVuSans-31"/>
       <use xlink:href="#DejaVuSans-35" transform="translate(63.623047 0)"/>
      </g>
     </g>
    </g>
    <g id="xtick_5">
     <g id="line2d_5">
      <g>
       <use xlink:href="#md50129da3d" x="540.8" y="640.8" style="stroke: #000000; stroke-width: 0.8"/>
      </g>
     </g>
     <g id="text_5">
      <!-- 20 -->
      <g transform="translate(534.4375 655.398438) scale(0.1 -0.1)">
       <defs>
        <path id="DejaVuSans-32" d="M 1228 531 
L 3431 531 
L 3431 0 
L 469 0 
L 469 531 
Q 828 903 1448 1529 
Q 2069 2156 2228 2338 
Q 2531 2678 2651 2914 
Q 2772 3150 2772 3378 
Q 2772 3750 2511 3984 
Q 2250 4219 1831 4219 
Q 1534 4219 1204 4116 
Q 875 4013 500 3803 
L 500 4441 
Q 881 4594 1212 4672 
Q 1544 4750 1819 4750 
Q 2544 4750 2975 4387 
Q 3406 4025 3406 3419 
Q 3406 3131 3298 2873 
Q 3191 2616 2906 2266 
Q 2828 2175 2409 1742 
Q 1991 1309 1228 531 
z
" transform="scale(0.015625)"/>
       </defs>
       <use xlink:href="#DejaVuSans-32"/>
       <use xlink:href="#DejaVuSans-30" transform="translate(63.623047 0)"/>
      </g>
     </g>
    </g>
    <g id="xtick_6">
     <g id="line2d_6">
      <g>
       <use xlink:href="#md50129da3d" x="640" y="640.8" style="stroke: #000000; stroke-width: 0.8"/>
      </g>
     </g>
     <g id="text_6">
      <!-- 25 -->
      <g transform="translate(633.6375 655.398438) scale(0.1 -0.1)">
       <use xlink:href="#DejaVuSans-32"/>
       <use xlink:href="#DejaVuSans-35" transform="translate(63.623047 0)"/>
      </g>
     </g>
    </g>
    <g id="xtick_7">
     <g id="line2d_7">
      <g>
       <use xlink:href="#md50129da3d" x="739.2" y="640.8" style="stroke: #000000; stroke-width: 0.8"/>
      </g>
     </g>
     <g id="text_7">
      <!-- 30 -->
      <g transform="translate(732.8375 655.398438) scale(0.1 -0.1)">
       <defs>
        <path id="DejaVuSans-33" d="M 2597 2516 
Q 3050 2419 3304 2112 
Q 3559 1806 3559 1356 
Q 3559 666 3084 287 
Q 2609 -91 1734 -91 
Q 1441 -91 1130 -33 
Q 819 25 488 141 
L 488 750 
Q 750 597 1062 519 
Q 1375 441 1716 441 
Q 2309 441 2620 675 
Q 2931 909 2931 1356 
Q 2931 1769 2642 2001 
Q 2353 2234 1838 2234 
L 1294 2234 
L 1294 2753 
L 1863 2753 
Q 2328 2753 2575 2939 
Q 2822 3125 2822 3475 
Q 2822 3834 2567 4026 
Q 2313 4219 1838 4219 
Q 1578 4219 1281 4162 
Q 984 4106 628 3988 
L 628 4550 
Q 988 4650 1302 4700 
Q 1616 4750 1894 4750 
Q 2613 4750 3031 4423 
Q 3450 4097 3450 3541 
Q 3450 3153 3228 2886 
Q 3006 2619 2597 2516 
z
" transform="scale(0.015625)"/>
       </defs>
       <use xlink:href="#DejaVuSans-33"/>
       <use xlink:href="#DejaVuSans-30" transform="translate(63.623047 0)"/>
      </g>
     </g>
    </g>
    <g id="xtick_8">
     <g id="line2d_8">
      <g>
       <use xlink:href="#md50129da3d" x="838.4" y="640.8" style="stroke: #000000; stroke-width: 0.8"/>
      </g>
     </g>
     <g id="text_8">
      <!-- 35 -->
      <g transform="translate(832.0375 655.398438) scale(0.1 -0.1)">
       <use xlink:href="#DejaVuSans-33"/>
       <use xlink:href="#DejaVuSans-35" transform="translate(63.623047 0)"/>
      </g>
     </g>
    </g>
    <g id="xtick_9">
     <g id="line2d_9">
      <g>
       <use xlink:href="#md50129da3d" x="937.6" y="640.8" style="stroke: #000000; stroke-width: 0.8"/>
      </g>
     </g>
     <g id="text_9">
      <!-- 40 -->
      <g transform="translate(931.2375 655.398438) scale(0.1 -0.1)">
       <defs>
        <path id="DejaVuSans-34" d="M 2419 4116 
L 825 1625 
L 2419 1625 
L 2419 4116 
z
M 2253 4666 
L 3047 4666 
L 3047 1625 
L 3713 1625 
L 3713 1100 
L 3047 1100 
L 3047 0 
L 2419 0 
L 2419 1100 
L 313 1100 
L 313 1709 
L 2253 4666 
z
" transform="scale(0.015625)"/>
       </defs>
       <use xlink:href="#DejaVuSans-34"/>
       <use xlink:href="#DejaVuSans-30" transform="translate(63.623047 0)"/>
      </g>
     </g>
    </g>
    <g id="xtick_10">
     <g id="line2d_10">
      <g>
       <use xlink:href="#md50129da3d" x="1036.8" y="640.8" style="stroke: #000000; stroke-width: 0.8"/>
      </g>
     </g>
     <g id="text_10">
      <!-- 45 -->
      <g transform="translate(1030.4375 655.398438) scale(0.1 -0.1)">
       <use xlink:href="#DejaVuSans-34"/>
       <use xlink:href="#DejaVuSans-35" transform="translate(63.623047 0)"/>
      </g>
     </g>
    </g>
    <g id="text_11">
     <!-- wall-clock time (days) -->
     <g transform="translate(535.644531 669.076563) scale(0.1 -0.1)">
      <defs>
       <path id="DejaVuSans-77" d="M 269 3500 
L 844 3500 
L 1563 769 
L 2278 3500 
L 2956 3500 
L 3675 769 
L 4391 3500 
L 4966 3500 
L 4050 0 
L 3372 0 
L 2619 2869 
L 1863 0 
L 1184 0 
L 269 3500 
z
" transform="scale(0.015625)"/>
       <path id="DejaVuSans-61" d="M 2194 1759 
Q 1497 1759 1228 1600 
Q 959 1441 959 1056 
Q 959 750 1161 570 
Q 1363 391 1709 391 
Q 2188 391 2477 730 
Q 2766 1069 2766 1631 
L 2766 1759 
L 2194 1759 
z
M 3341 1997 
L 3341 0 
L 2766 0 
L 2766 531 
Q 2569 213 2275 61 
Q 1981 -91 1556 -91 
Q 1019 -91 701 211 
Q 384 513 384 1019 
Q 384 1609 779 1909 
Q 1175 2209 1959 2209 
L 2766 2209 
L 2766 2266 
Q 2766 2663 2505 2880 
Q 2244 3097 1772 3097 
Q 1472 3097 1187 3025 
Q 903 2953 641 2809 
L 641 3341 
Q 956 3463 1253 3523 
Q 1550 3584 1831 3584 
Q 2591 3584 2966 3190 
Q 3341 2797 3341 1997 
z
" transform="scale(0.015625)"/>
       <path id="DejaVuSans-6c" d="M 603 4863 
L 1178 4863 
L 1178 0 
L 603 0 
L 603 4863 
z
" transform="scale(0.015625)"/>
       <path id="DejaVuSans-2d" d="M 313 2009 
L 1997 2009 
L 1997 1497 
L 313 1497 
L 313 2009 
z
" transform="scale(0.015625)"/>
       <path id="DejaVuSans-63" d="M 3122 3366 
L 3122 2828 
Q 2878 2963 2633 3030 
Q 2388 3097 2138 3097 
Q 1578 3097 1268 2742 
Q 959 2388 959 1747 
Q 959 1106 1268 751 
Q 1578 397 2138 397 
Q 2388 397 2633 464 
Q 2878 531 3122 666 
L 3122 134 
Q 2881 22 2623 -34 
Q 2366 -91 2075 -91 
Q 1284 -91 818 406 
Q 353 903 353 1747 
Q 353 2603 823 3093 
Q 1294 3584 2113 3584 
Q 2378 3584 2631 3529 
Q 2884 3475 3122 3366 
z
" transform="scale(0.015625)"/>
       <path id="DejaVuSans-6f" d="M 1959 3097 
Q 1497 3097 1228 2736 
Q 959 2375 959 1747 
Q 959 1119 1226 758 
Q 1494 397 1959 397 
Q 2419 397 2687 759 
Q 2956 1122 2956 1747 
Q 2956 2369 2687 2733 
Q 2419 3097 1959 3097 
z
M 1959 3584 
Q 2709 3584 3137 3096 
Q 3566 2609 3566 1747 
Q 3566 888 3137 398 
Q 2709 -91 1959 -91 
Q 1206 -91 779 398 
Q 353 888 353 1747 
Q 353 2609 779 3096 
Q 1206 3584 1959 3584 
z
" transform="scale(0.015625)"/>
       <path id="DejaVuSans-6b" d="M 581 4863 
L 1159 4863 
L 1159 1991 
L 2875 3500 
L 3609 3500 
L 1753 1863 
L 3688 0 
L 2938 0 
L 1159 1709 
L 1159 0 
L 581 0 
L 581 4863 
z
" transform="scale(0.015625)"/>
       <path id="DejaVuSans-20" transform="scale(0.015625)"/>
       <path id="DejaVuSans-74" d="M 1172 4494 
L 1172 3500 
L 2356 3500 
L 2356 3053 
L 1172 3053 
L 1172 1153 
Q 1172 725 1289 603 
Q 1406 481 1766 481 
L 2356 481 
L 2356 0 
L 1766 0 
Q 1100 0 847 248 
Q 594 497 594 1153 
L 594 3053 
L 172 3053 
L 172 3500 
L 594 3500 
L 594 4494 
L 1172 4494 
z
" transform="scale(0.015625)"/>
       <path id="DejaVuSans-69" d="M 603 3500 
L 1178 3500 
L 1178 0 
L 603 0 
L 603 3500 
z
M 603 4863 
L 1178 4863 
L 1178 4134 
L 603 4134 
L 603 4863 
z
" transform="scale(0.015625)"/>
       <path id="DejaVuSans-6d" d="M 3328 2828 
Q 3544 3216 3844 3400 
Q 4144 3584 4550 3584 
Q 5097 3584 5394 3201 
Q 5691 2819 5691 2113 
L 5691 0 
L 5113 0 
L 5113 2094 
Q 5113 2597 4934 2840 
Q 4756 3084 4391 3084 
Q 3944 3084 3684 2787 
Q 3425 2491 3425 1978 
L 3425 0 
L 2847 0 
L 2847 2094 
Q 2847 2600 2669 2842 
Q 2491 3084 2119 3084 
Q 1678 3084 1418 2786 
Q 1159 2488 1159 1978 
L 1159 0 
L 581 0 
L 581 3500 
L 1159 3500 
L 1159 2956 
Q 1356 3278 1631 3431 
Q 1906 3584 2284 3584 
Q 2666 3584 2933 3390 
Q 3200 3197 3328 2828 
z
" transform="scale(0.015625)"/>
       <path id="DejaVuSans-65" d="M 3597 1894 
L 3597 1613 
L 953 1613 
Q 991 1019 1311 708 
Q 1631 397 2203 397 
Q 2534 397 2845 478 
Q 3156 559 3463 722 
L 3463 178 
Q 3153 47 2828 -22 
Q 2503 -91 2169 -91 
Q 1331 -91 842 396 
Q 353 884 353 1716 
Q 353 2575 817 3079 
Q 1281 3584 2069 3584 
Q 2775 3584 3186 3129 
Q 3597 2675 3597 1894 
z
M 3022 2063 
Q 3016 2534 2758 2815 
Q 2500 3097 2075 3097 
Q 1594 3097 1305 2825 
Q 1016 2553 972 2059 
L 3022 2063 
z
" transform="scale(0.015625)"/>
       <path id="DejaVuSans-28" d="M 1984 4856 
Q 1566 4138 1362 3434 
Q 1159 2731 1159 2009 
Q 1159 1288 1364 580 
Q 1569 -128 1984 -844 
L 1484 -844 
Q 1016 -109 783 600 
Q 550 1309 550 2009 
Q 550 2706 781 3412 
Q 1013 4119 1484 4856 
L 1984 4856 
z
" transform="scale(0.015625)"/>
       <path id="DejaVuSans-64" d="M 2906 2969 
L 2906 4863 
L 3481 4863 
L 3481 0 
L 2906 0 
L 2906 525 
Q 2725 213 2448 61 
Q 2172 -91 1784 -91 
Q 1150 -91 751 415 
Q 353 922 353 1747 
Q 353 2572 751 3078 
Q 1150 3584 1784 3584 
Q 2172 3584 2448 3432 
Q 2725 3281 2906 2969 
z
M 947 1747 
Q 947 1113 1208 752 
Q 1469 391 1925 391 
Q 2381 391 2643 752 
Q 2906 1113 2906 1747 
Q 2906 2381 2643 2742 
Q 2381 3103 1925 3103 
Q 1469 3103 1208 2742 
Q 947 2381 947 1747 
z
" transform="scale(0.015625)"/>
       <path id="DejaVuSans-79" d="M 2059 -325 
Q 1816 -950 1584 -1140 
Q 1353 -1331 966 -1331 
L 506 -1331 
L 506 -850 
L 844 -850 
Q 1081 -850 1212 -737 
Q 1344 -625 1503 -206 
L 1606 56 
L 191 3500 
L 800 3500 
L 1894 763 
L 2988 3500 
L 3597 3500 
L 2059 -325 
z
" transform="scale(0.015625)"/>
       <path id="DejaVuSans-73" d="M 2834 3397 
L 2834 2853 
Q 2591 2978 2328 3040 
Q 2066 3103 1784 3103 
Q 1356 3103 1142 2972 
Q 928 2841 928 2578 
Q 928 2378 1081 2264 
Q 1234 2150 1697 2047 
L 1894 2003 
Q 2506 1872 2764 1633 
Q 3022 1394 3022 966 
Q 3022 478 2636 193 
Q 2250 -91 1575 -91 
Q 1294 -91 989 -36 
Q 684 19 347 128 
L 347 722 
Q 666 556 975 473 
Q 1284 391 1588 391 
Q 1994 391 2212 530 
Q 2431 669 2431 922 
Q 2431 1156 2273 1281 
Q 2116 1406 1581 1522 
L 1381 1569 
Q 847 1681 609 1914 
Q 372 2147 372 2553 
Q 372 3047 722 3315 
Q 1072 3584 1716 3584 
Q 2034 3584 2315 3537 
Q 2597 3491 2834 3397 
z
" transform="scale(0.015625)"/>
       <path id="DejaVuSans-29" d="M 513 4856 
L 1013 4856 
Q 1481 4119 1714 3412 
Q 1947 2706 1947 2009 
Q 1947 1309 1714 600 
Q 1481 -109 1013 -844 
L 513 -844 
Q 928 -128 1133 580 
Q 1338 1288 1338 2009 
Q 1338 2731 1133 3434 
Q 928 4138 513 4856 
z
" transform="scale(0.015625)"/>
      </defs>
      <use xlink:href="#DejaVuSans-77"/>
      <use xlink:href="#DejaVuSans-61" transform="translate(81.787109 0)"/>
      <use xlink:href="#DejaVuSans-6c" transform="translate(143.066406 0)"/>
      <use xlink:href="#DejaVuSans-6c" transform="translate(170.849609 0)"/>
      <use xlink:href="#DejaVuSans-2d" transform="translate(198.632812 0)"/>
      <use xlink:href="#DejaVuSans-63" transform="translate(234.716797 0)"/>
      <use xlink:href="#DejaVuSans-6c" transform="translate(289.697266 0)"/>
      <use xlink:href="#DejaVuSans-6f" transform="translate(317.480469 0)"/>
      <use xlink:href="#DejaVuSans-63" transform="translate(378.662109 0)"/>
      <use xlink:href="#DejaVuSans-6b" transform="translate(433.642578 0)"/>
      <use xlink:href="#DejaVuSans-20" transform="translate(491.552734 0)"/>
      <use xlink:href="#DejaVuSans-74" transform="translate(523.339844 0)"/>
      <use xlink:href="#DejaVuSans-69" transform="translate(562.548828 0)"/>
      <use xlink:href="#DejaVuSans-6d" transform="translate(590.332031 0)"/>
      <use xlink:href="#DejaVuSans-65" transform="translate(687.744141 0)"/>
      <use xlink:href="#DejaVuSans-20" transform="translate(749.267578 0)"/>
      <use xlink:href="#DejaVuSans-28" transform="translate(781.054688 0)"/>
      <use xlink:href="#DejaVuSans-64" transform="translate(820.068359 0)"/>
      <use xlink:href="#DejaVuSans-61" transform="translate(883.544922 0)"/>
      <use xlink:href="#DejaVuSans-79" transform="translate(944.824219 0)"/>
      <use xlink:href="#DejaVuSans-73" transform="translate(1004.003906 0)"/>
      <use xlink:href="#DejaVuSans-29" transform="translate(1056.103516 0)"/>
     </g>
    </g>
   </g>
   <g id="matplotlib.axis_2">
    <g id="ytick_1">
     <g id="line2d_11">
      <defs>
       <path id="md14ab27144" d="M 0 0 
L -3.5 0 
" style="stroke: #000000; stroke-width: 0.8"/>
      </defs>
      <g>
       <use xlink:href="#md14ab27144" x="144" y="450.192815" style="stroke: #000000; stroke-width: 0.8"/>
      </g>
     </g>
     <g id="text_12">
      <!-- −100 -->
      <g transform="translate(109.532813 453.992034) scale(0.1 -0.1)">
       <defs>
        <path id="DejaVuSans-2212" d="M 678 2272 
L 4684 2272 
L 4684 1741 
L 678 1741 
L 678 2272 
z
" transform="scale(0.015625)"/>
       </defs>
       <use xlink:href="#DejaVuSans-2212"/>
       <use xlink:href="#DejaVuSans-31" transform="translate(83.789062 0)"/>
       <use xlink:href="#DejaVuSans-30" transform="translate(147.412109 0)"/>
       <use xlink:href="#DejaVuSans-30" transform="translate(211.035156 0)"/>
      </g>
     </g>
    </g>
    <g id="ytick_2">
     <g id="line2d_12">
      <g>
       <use xlink:href="#md14ab27144" x="144" y="417.874006" style="stroke: #000000; stroke-width: 0.8"/>
      </g>
     </g>
     <g id="text_13">
      <!-- 0 -->
      <g transform="translate(130.6375 421.673225) scale(0.1 -0.1)">
       <use xlink:href="#DejaVuSans-30"/>
      </g>
     </g>
    </g>
    <g id="ytick_3">
     <g id="line2d_13">
      <g>
       <use xlink:href="#md14ab27144" x="144" y="385.555197" style="stroke: #000000; stroke-width: 0.8"/>
      </g>
     </g>
     <g id="text_14">
      <!-- 100 -->
      <g transform="translate(117.9125 389.354416) scale(0.1 -0.1)">
       <use xlink:href="#DejaVuSans-31"/>
       <use xlink:href="#DejaVuSans-30" transform="translate(63.623047 0)"/>
       <use xlink:href="#DejaVuSans-30" transform="translate(127.246094 0)"/>
      </g>
     </g>
    </g>
    <g id="ytick_4">
     <g id="line2d_14">
      <g>
       <use xlink:href="#md14ab27144" x="144" y="353.236388" style="stroke: #000000; stroke-width: 0.8"/>
      </g>
     </g>
     <g id="text_15">
      <!-- 200 -->
      <g transform="translate(117.9125 357.035607) scale(0.1 -0.1)">
       <use xlink:href="#DejaVuSans-32"/>
       <use xlink:href="#DejaVuSans-30" transform="translate(63.623047 0)"/>
       <use xlink:href="#DejaVuSans-30" transform="translate(127.246094 0)"/>
      </g>
     </g>
    </g>
    <g id="ytick_5">
     <g id="line2d_15">
      <g>
       <use xlink:href="#md14ab27144" x="144" y="320.917579" style="stroke: #000000; stroke-width: 0.8"/>
      </g>
     </g>
     <g id="text_16">
      <!-- 300 -->
      <g transform="translate(117.9125 324.716798) scale(0.1 -0.1)">
       <use xlink:href="#DejaVuSans-33"/>
       <use xlink:href="#DejaVuSans-30" transform="translate(63.623047 0)"/>
       <use xlink:href="#DejaVuSans-30" transform="translate(127.246094 0)"/>
      </g>
     </g>
    </g>
    <g id="ytick_6">
     <g id="line2d_16">
      <g>
       <use xlink:href="#md14ab27144" x="144" y="288.59877" style="stroke: #000000; stroke-width: 0.8"/>
      </g>
     </g>
     <g id="text_17">
      <!-- 400 -->
      <g transform="translate(117.9125 292.397989) scale(0.1 -0.1)">
       <use xlink:href="#DejaVuSans-34"/>
       <use xlink:href="#DejaVuSans-30" transform="translate(63.623047 0)"/>
       <use xlink:href="#DejaVuSans-30" transform="translate(127.246094 0)"/>
      </g>
     </g>
    </g>
    <g id="ytick_7">
     <g id="line2d_17">
      <g>
       <use xlink:href="#md14ab27144" x="144" y="256.279961" style="stroke: #000000; stroke-width: 0.8"/>
      </g>
     </g>
     <g id="text_18">
      <!-- 500 -->
      <g transform="translate(117.9125 260.07918) scale(0.1 -0.1)">
       <use xlink:href="#DejaVuSans-35"/>
       <use xlink:href="#DejaVuSans-30" transform="translate(63.623047 0)"/>
       <use xlink:href="#DejaVuSans-30" transform="translate(127.246094 0)"/>
      </g>
     </g>
    </g>
    <g id="ytick_8">
     <g id="line2d_18">
      <g>
       <use xlink:href="#md14ab27144" x="144" y="223.961153" style="stroke: #000000; stroke-width: 0.8"/>
      </g>
     </g>
     <g id="text_19">
      <!-- 600 -->
      <g transform="translate(117.9125 227.760371) scale(0.1 -0.1)">
       <defs>
        <path id="DejaVuSans-36" d="M 2113 2584 
Q 1688 2584 1439 2293 
Q 1191 2003 1191 1497 
Q 1191 994 1439 701 
Q 1688 409 2113 409 
Q 2538 409 2786 701 
Q 3034 994 3034 1497 
Q 3034 2003 2786 2293 
Q 2538 2584 2113 2584 
z
M 3366 4563 
L 3366 3988 
Q 3128 4100 2886 4159 
Q 2644 4219 2406 4219 
Q 1781 4219 1451 3797 
Q 1122 3375 1075 2522 
Q 1259 2794 1537 2939 
Q 1816 3084 2150 3084 
Q 2853 3084 3261 2657 
Q 3669 2231 3669 1497 
Q 3669 778 3244 343 
Q 2819 -91 2113 -91 
Q 1303 -91 875 529 
Q 447 1150 447 2328 
Q 447 3434 972 4092 
Q 1497 4750 2381 4750 
Q 2619 4750 2861 4703 
Q 3103 4656 3366 4563 
z
" transform="scale(0.015625)"/>
       </defs>
       <use xlink:href="#DejaVuSans-36"/>
       <use xlink:href="#DejaVuSans-30" transform="translate(63.623047 0)"/>
       <use xlink:href="#DejaVuSans-30" transform="translate(127.246094 0)"/>
      </g>
     </g>
    </g>
    <g id="ytick_9">
     <g id="line2d_19">
      <g>
       <use xlink:href="#md14ab27144" x="144" y="191.642344" style="stroke: #000000; stroke-width: 0.8"/>
      </g>
     </g>
     <g id="text_20">
      <!-- 700 -->
      <g transform="translate(117.9125 195.441562) scale(0.1 -0.1)">
       <defs>
        <path id="DejaVuSans-37" d="M 525 4666 
L 3525 4666 
L 3525 4397 
L 1831 0 
L 1172 0 
L 2766 4134 
L 525 4134 
L 525 4666 
z
" transform="scale(0.015625)"/>
       </defs>
       <use xlink:href="#DejaVuSans-37"/>
       <use xlink:href="#DejaVuSans-30" transform="translate(63.623047 0)"/>
       <use xlink:href="#DejaVuSans-30" transform="translate(127.246094 0)"/>
      </g>
     </g>
    </g>
    <g id="ytick_10">
     <g id="line2d_20">
      <g>
       <use xlink:href="#md14ab27144" x="144" y="159.323535" style="stroke: #000000; stroke-width: 0.8"/>
      </g>
     </g>
     <g id="text_21">
      <!-- 800 -->
      <g transform="translate(117.9125 163.122753) scale(0.1 -0.1)">
       <defs>
        <path id="DejaVuSans-38" d="M 2034 2216 
Q 1584 2216 1326 1975 
Q 1069 1734 1069 1313 
Q 1069 891 1326 650 
Q 1584 409 2034 409 
Q 2484 409 2743 651 
Q 3003 894 3003 1313 
Q 3003 1734 2745 1975 
Q 2488 2216 2034 2216 
z
M 1403 2484 
Q 997 2584 770 2862 
Q 544 3141 544 3541 
Q 544 4100 942 4425 
Q 1341 4750 2034 4750 
Q 2731 4750 3128 4425 
Q 3525 4100 3525 3541 
Q 3525 3141 3298 2862 
Q 3072 2584 2669 2484 
Q 3125 2378 3379 2068 
Q 3634 1759 3634 1313 
Q 3634 634 3220 271 
Q 2806 -91 2034 -91 
Q 1263 -91 848 271 
Q 434 634 434 1313 
Q 434 1759 690 2068 
Q 947 2378 1403 2484 
z
M 1172 3481 
Q 1172 3119 1398 2916 
Q 1625 2713 2034 2713 
Q 2441 2713 2670 2916 
Q 2900 3119 2900 3481 
Q 2900 3844 2670 4047 
Q 2441 4250 2034 4250 
Q 1625 4250 1398 4047 
Q 1172 3844 1172 3481 
z
" transform="scale(0.015625)"/>
       </defs>
       <use xlink:href="#DejaVuSans-38"/>
       <use xlink:href="#DejaVuSans-30" transform="translate(63.623047 0)"/>
       <use xlink:href="#DejaVuSans-30" transform="translate(127.246094 0)"/>
      </g>
     </g>
    </g>
    <g id="ytick_11">
     <g id="line2d_21">
      <g>
       <use xlink:href="#md14ab27144" x="144" y="127.004726" style="stroke: #000000; stroke-width: 0.8"/>
      </g>
     </g>
     <g id="text_22">
      <!-- 900 -->
      <g transform="translate(117.9125 130.803945) scale(0.1 -0.1)">
       <defs>
        <path id="DejaVuSans-39" d="M 703 97 
L 703 672 
Q 941 559 1184 500 
Q 1428 441 1663 441 
Q 2288 441 2617 861 
Q 2947 1281 2994 2138 
Q 2813 1869 2534 1725 
Q 2256 1581 1919 1581 
Q 1219 1581 811 2004 
Q 403 2428 403 3163 
Q 403 3881 828 4315 
Q 1253 4750 1959 4750 
Q 2769 4750 3195 4129 
Q 3622 3509 3622 2328 
Q 3622 1225 3098 567 
Q 2575 -91 1691 -91 
Q 1453 -91 1209 -44 
Q 966 3 703 97 
z
M 1959 2075 
Q 2384 2075 2632 2365 
Q 2881 2656 2881 3163 
Q 2881 3666 2632 3958 
Q 2384 4250 1959 4250 
Q 1534 4250 1286 3958 
Q 1038 3666 1038 3163 
Q 1038 2656 1286 2365 
Q 1534 2075 1959 2075 
z
" transform="scale(0.015625)"/>
       </defs>
       <use xlink:href="#DejaVuSans-39"/>
       <use xlink:href="#DejaVuSans-30" transform="translate(63.623047 0)"/>
       <use xlink:href="#DejaVuSans-30" transform="translate(127.246094 0)"/>
      </g>
     </g>
    </g>
    <g id="text_23">
     <!-- cumulative reward -->
     <g transform="translate(103.453125 410.299219) rotate(-90) scale(0.1 -0.1)">
      <defs>
       <path id="DejaVuSans-75" d="M 544 1381 
L 544 3500 
L 1119 3500 
L 1119 1403 
Q 1119 906 1312 657 
Q 1506 409 1894 409 
Q 2359 409 2629 706 
Q 2900 1003 2900 1516 
L 2900 3500 
L 3475 3500 
L 3475 0 
L 2900 0 
L 2900 538 
Q 2691 219 2414 64 
Q 2138 -91 1772 -91 
Q 1169 -91 856 284 
Q 544 659 544 1381 
z
M 1991 3584 
L 1991 3584 
z
" transform="scale(0.015625)"/>
       <path id="DejaVuSans-76" d="M 191 3500 
L 800 3500 
L 1894 563 
L 2988 3500 
L 3597 3500 
L 2284 0 
L 1503 0 
L 191 3500 
z
" transform="scale(0.015625)"/>
       <path id="DejaVuSans-72" d="M 2631 2963 
Q 2534 3019 2420 3045 
Q 2306 3072 2169 3072 
Q 1681 3072 1420 2755 
Q 1159 2438 1159 1844 
L 1159 0 
L 581 0 
L 581 3500 
L 1159 3500 
L 1159 2956 
Q 1341 3275 1631 3429 
Q 1922 3584 2338 3584 
Q 2397 3584 2469 3576 
Q 2541 3569 2628 3553 
L 2631 2963 
z
" transform="scale(0.015625)"/>
      </defs>
      <use xlink:href="#DejaVuSans-63"/>
      <use xlink:href="#DejaVuSans-75" transform="translate(54.980469 0)"/>
      <use xlink:href="#DejaVuSans-6d" transform="translate(118.359375 0)"/>
      <use xlink:href="#DejaVuSans-75" transform="translate(215.771484 0)"/>
      <use xlink:href="#DejaVuSans-6c" transform="translate(279.150391 0)"/>
      <use xlink:href="#DejaVuSans-61" transform="translate(306.933594 0)"/>
      <use xlink:href="#DejaVuSans-74" transform="translate(368.212891 0)"/>
      <use xlink:href="#DejaVuSans-69" transform="translate(407.421875 0)"/>
      <use xlink:href="#DejaVuSans-76" transform="translate(435.205078 0)"/>
      <use xlink:href="#DejaVuSans-65" transform="translate(494.384766 0)"/>
      <use xlink:href="#DejaVuSans-20" transform="translate(555.908203 0)"/>
      <use xlink:href="#DejaVuSans-72" transform="translate(587.695312 0)"/>
      <use xlink:href="#DejaVuSans-65" transform="translate(626.558594 0)"/>
      <use xlink:href="#DejaVuSans-77" transform="translate(688.082031 0)"/>
      <use xlink:href="#DejaVuSans-61" transform="translate(769.869141 0)"/>
      <use xlink:href="#DejaVuSans-72" transform="translate(831.148438 0)"/>
      <use xlink:href="#DejaVuSans-64" transform="translate(870.511719 0)"/>
     </g>
    </g>
   </g>
   <g id="line2d_22">
    <path d="M 144 574.652087 
L 144.826667 561.758709 
L 145.653333 558.276838 
L 146.48 565.237223 
L 147.306667 565.103302 
L 148.133333 569.701385 
L 148.96 569.909278 
L 149.786667 560.465525 
L 150.613333 560.403688 
L 151.44 548.841536 
L 152.266667 554.846064 
L 153.093333 555.978558 
L 153.92 541.367422 
L 154.746667 538.469931 
L 155.573333 538.280935 
L 156.4 540.677619 
L 157.226667 528.140224 
L 158.053333 531.605136 
L 158.88 516.075907 
L 159.706667 524.869231 
L 160.533333 523.320919 
L 161.36 526.503388 
L 162.186667 513.728147 
L 163.013333 515.625883 
L 163.84 507.379592 
L 164.666667 497.084732 
L 165.493333 500.267053 
L 166.32 495.029645 
L 167.146667 501.749654 
L 167.973333 489.266535 
L 168.8 488.175341 
L 169.626667 488.64344 
L 170.453333 480.530837 
L 171.28 481.825304 
L 172.106667 479.667652 
L 172.933333 470.66131 
L 173.76 468.829217 
L 174.586667 468.069942 
L 175.413333 466.354709 
L 176.24 470.949109 
L 177.066667 452.675513 
L 177.893333 466.60026 
L 179.546667 453.593891 
L 180.373333 454.779255 
L 181.2 432.082655 
L 182.026667 434.6392 
L 182.853333 428.000913 
L 183.68 432.764791 
L 184.506667 441.329384 
L 185.333333 426.825425 
L 186.16 423.952893 
L 186.986667 409.227584 
L 187.813333 414.918879 
L 188.64 408.380924 
L 189.466667 407.78629 
L 190.293333 416.757987 
L 191.12 405.61386 
L 191.946667 406.337438 
L 192.773333 408.819151 
L 193.6 395.270881 
L 194.426667 398.475127 
L 195.253333 391.291297 
L 196.08 389.04686 
L 196.906667 379.276435 
L 197.733333 380.029931 
L 198.56 376.675637 
L 199.386667 379.400496 
L 200.213333 377.457245 
L 201.04 366.976726 
L 201.866667 367.913395 
L 202.693333 369.869563 
L 203.52 348.982028 
L 204.346667 363.343675 
L 205.173333 353.168219 
L 206 356.114451 
L 206.826667 357.799516 
L 207.653333 356.263274 
L 208.48 341.562222 
L 209.306667 360.183532 
L 210.133333 328.657911 
L 210.96 326.823283 
L 211.786667 337.736084 
L 212.613333 328.709097 
L 213.44 317.169666 
L 214.266667 323.918368 
L 215.093333 321.205935 
L 216.746667 309.609416 
L 217.573333 306.98523 
L 218.4 301.176775 
L 219.226667 306.123888 
L 220.053333 295.122185 
L 220.88 297.259284 
L 221.706667 300.12895 
L 222.533333 287.012914 
L 223.36 289.953268 
L 224.186667 282.006078 
L 225.013333 281.816824 
L 225.84 279.642826 
L 226.666667 284.845888 
L 227.493333 273.31726 
L 228.32 271.883333 
L 229.146667 267.25902 
L 229.973333 266.266305 
L 230.8 261.711681 
L 231.626667 259.615609 
L 232.453333 247.003312 
L 233.28 243.927945 
L 234.106667 260.047638 
L 234.933333 246.170518 
L 235.76 248.521455 
L 236.586667 236.597179 
L 237.413333 239.09543 
L 238.24 235.574062 
L 239.066667 236.97879 
L 239.893333 226.665263 
L 240.72 225.209528 
L 241.546667 218.842277 
L 242.373333 221.491429 
L 243.2 221.239612 
L 244.026667 219.012587 
L 244.853333 205.783683 
L 245.68 214.806548 
L 246.506667 213.04887 
L 247.333333 201.082378 
L 248.986667 198.258969 
L 249.813333 195.298488 
L 250.64 192.758014 
L 251.466667 185.24901 
L 252.293333 185.236794 
L 253.12 175.877658 
L 253.946667 168.283574 
L 254.773333 180.407405 
L 255.6 174.288464 
L 256.426667 169.259372 
L 257.253333 161.566399 
L 258.08 165.833593 
L 258.906667 164.321173 
L 260.56 153.378961 
L 261.386667 152.757832 
L 262.213333 147.8452 
L 263.04 146.902137 
L 263.866667 146.426356 
L 264.693333 137.398692 
L 265.52 137.728784 
L 266.346667 130.50084 
L 267.173333 128.711266 
L 268 125.605955 
L 268.826667 126.799038 
L 269.653333 126.21914 
L 270.48 126.105976 
L 271.306667 125.06212 
L 272.133333 131.450934 
L 272.96 126.965439 
L 273.786667 125.275778 
L 274.613333 130.015253 
L 275.44 125.747004 
L 276.266667 127.895486 
L 277.093333 126.86595 
L 277.92 124.992803 
L 278.746667 127.866268 
L 279.573333 125.318448 
L 280.4 128.505203 
L 281.226667 125.735827 
L 282.053333 122.262098 
L 282.88 126.071987 
L 283.706667 123.355238 
L 284.533333 128.923697 
L 285.36 130.286632 
L 286.186667 128.967326 
L 287.013333 129.506126 
L 287.84 127.508107 
L 288.666667 132.234336 
L 289.493333 123.419362 
L 290.32 122.01465 
L 291.146667 126.620614 
L 292.8 127.499159 
L 293.626667 124.588406 
L 294.453333 129.734072 
L 295.28 125.190325 
L 296.106667 128.021838 
L 296.933333 127.470748 
L 297.76 127.704686 
L 298.586667 125.854626 
L 299.413333 125.212919 
L 300.24 128.370539 
L 301.066667 129.487643 
L 301.893333 126.595536 
L 302.72 127.077704 
L 303.546667 127.709817 
L 304.373333 129.619031 
L 305.2 126.96898 
L 306.026667 126.624957 
L 306.853333 125.009061 
L 307.68 123.775157 
L 308.506667 128.216329 
L 308.506667 128.216329 
" clip-path="url(#p5e110943a1)" style="fill: none; stroke: #0000ff; stroke-width: 1.5; stroke-linecap: square"/>
   </g>
   <g id="line2d_23">
    <path d="M 144 604.736628 
L 144.826667 590.312657 
L 145.653333 602.872922 
L 146.48 590.179806 
L 147.306667 567.122991 
L 148.133333 586.062615 
L 148.96 580.09076 
L 149.786667 593.837357 
L 150.613333 594.443242 
L 151.44 571.891149 
L 152.266667 615.6 
L 153.093333 600.858152 
L 153.92 543.919155 
L 154.746667 581.946264 
L 155.573333 566.074683 
L 156.4 566.111053 
L 157.226667 534.248528 
L 158.053333 553.915074 
L 158.88 562.089244 
L 159.706667 562.032523 
L 160.533333 552.939603 
L 161.36 570.573487 
L 162.186667 560.479635 
L 163.013333 553.113037 
L 163.84 561.948065 
L 164.666667 530.634341 
L 165.493333 504.643263 
L 166.32 548.006287 
L 167.146667 527.095501 
L 167.973333 514.266023 
L 168.8 533.798967 
L 169.626667 515.608131 
L 170.453333 516.393184 
L 171.28 495.04637 
L 172.106667 501.226073 
L 172.933333 528.125823 
L 173.76 500.161564 
L 174.586667 501.181977 
L 175.413333 502.620507 
L 176.24 518.134124 
L 177.066667 473.238194 
L 177.893333 506.458261 
L 179.546667 466.242328 
L 180.373333 493.067381 
L 181.2 454.592361 
L 182.026667 451.642683 
L 182.853333 440.448104 
L 183.68 474.685282 
L 184.506667 480.016063 
L 185.333333 463.343032 
L 186.16 459.79993 
L 187.813333 435.661236 
L 188.64 431.018664 
L 189.466667 462.327107 
L 190.293333 439.58503 
L 191.12 447.489923 
L 191.946667 469.865229 
L 192.773333 446.634469 
L 193.6 426.765879 
L 194.426667 440.411967 
L 195.253333 427.90639 
L 196.08 408.713911 
L 196.906667 423.174837 
L 197.733333 417.952911 
L 198.56 421.288989 
L 199.386667 419.875191 
L 200.213333 410.649258 
L 201.04 382.225889 
L 201.866667 388.91199 
L 202.693333 404.44448 
L 203.52 387.85684 
L 204.346667 404.409491 
L 205.173333 394.300784 
L 206 381.834877 
L 206.826667 399.314228 
L 207.653333 383.769748 
L 208.48 381.516782 
L 209.306667 382.487477 
L 210.133333 347.11058 
L 210.96 345.336499 
L 211.786667 374.46061 
L 212.613333 357.385439 
L 213.44 337.887106 
L 214.266667 361.703618 
L 215.093333 348.983781 
L 215.92 341.076078 
L 216.746667 347.625904 
L 217.573333 344.778126 
L 218.4 328.237892 
L 219.226667 348.119488 
L 220.053333 327.624275 
L 220.88 328.452969 
L 221.706667 350.367977 
L 222.533333 326.047942 
L 223.36 314.732546 
L 224.186667 313.101062 
L 225.013333 309.489812 
L 225.84 307.824726 
L 226.666667 305.792809 
L 227.493333 317.437303 
L 228.32 296.264006 
L 229.146667 293.094563 
L 229.973333 301.700997 
L 230.8 294.127145 
L 231.626667 295.716675 
L 232.453333 273.556177 
L 233.28 270.238409 
L 234.106667 288.500817 
L 234.933333 292.132338 
L 235.76 284.377623 
L 236.586667 265.580084 
L 237.413333 280.115271 
L 238.24 268.219318 
L 239.066667 268.319772 
L 239.893333 251.351182 
L 240.72 252.508872 
L 241.546667 251.60842 
L 242.373333 260.168741 
L 243.2 257.992894 
L 244.026667 238.315049 
L 244.853333 238.569449 
L 245.68 246.779774 
L 246.506667 244.820431 
L 247.333333 227.705725 
L 248.16 237.653297 
L 248.986667 225.901269 
L 249.813333 220.64878 
L 250.64 226.304337 
L 251.466667 221.852124 
L 252.293333 204.722405 
L 253.12 206.828214 
L 253.946667 206.66309 
L 254.773333 213.811205 
L 255.6 200.927192 
L 256.426667 209.230986 
L 257.253333 196.628374 
L 258.08 191.225384 
L 258.906667 199.414643 
L 259.733333 187.022375 
L 260.56 185.458283 
L 261.386667 188.616576 
L 262.213333 183.62447 
L 263.04 181.802695 
L 263.866667 178.958846 
L 264.693333 162.468224 
L 265.52 170.250566 
L 266.346667 160.395869 
L 267.173333 166.970272 
L 268 157.10449 
L 268.826667 158.501512 
L 269.653333 156.940584 
L 270.48 156.826113 
L 271.306667 156.169209 
L 272.133333 160.104477 
L 272.96 165.244098 
L 273.786667 149.912501 
L 274.613333 166.215363 
L 275.44 165.587887 
L 276.266667 157.467699 
L 277.093333 157.641027 
L 277.92 155.663299 
L 278.746667 161.404467 
L 279.573333 162.018517 
L 280.4 156.801436 
L 281.226667 157.874993 
L 282.053333 154.998535 
L 282.88 159.114363 
L 284.533333 160.835977 
L 285.36 167.548766 
L 286.186667 155.937836 
L 287.013333 157.639394 
L 287.84 154.968937 
L 288.666667 164.37767 
L 290.32 154.524846 
L 291.146667 158.472867 
L 291.973333 157.630763 
L 292.8 164.678695 
L 293.626667 150.206265 
L 294.453333 159.53907 
L 295.28 161.618649 
L 296.106667 161.922247 
L 296.933333 158.57818 
L 297.76 163.77031 
L 298.586667 157.173018 
L 299.413333 156.934146 
L 300.24 156.137369 
L 301.066667 167.477738 
L 301.893333 158.601779 
L 302.72 162.962254 
L 303.546667 159.844584 
L 304.373333 164.339981 
L 305.2 160.411132 
L 306.026667 155.781781 
L 306.853333 158.855248 
L 307.68 159.372289 
L 308.506667 160.619461 
L 308.506667 160.619461 
" clip-path="url(#p5e110943a1)" style="fill: none; stroke: #ffa500; stroke-width: 1.5; stroke-linecap: square"/>
   </g>
   <g id="line2d_24">
    <path d="M 144 560.76994 
L 144.826667 553.568904 
L 145.653333 551.58542 
L 147.306667 566.334128 
L 148.133333 558.025303 
L 148.96 551.024239 
L 149.786667 559.656792 
L 150.613333 557.850203 
L 151.44 540.946487 
L 152.266667 545.233302 
L 153.093333 553.74014 
L 153.92 539.741752 
L 154.746667 527.738604 
L 155.573333 537.473129 
L 156.4 524.661464 
L 157.226667 516.517363 
L 158.053333 518.291831 
L 158.88 511.316561 
L 159.706667 509.466937 
L 160.533333 520.061254 
L 161.36 508.961806 
L 162.186667 501.952103 
L 163.013333 497.132011 
L 163.84 512.585349 
L 164.666667 489.080213 
L 165.493333 491.806729 
L 166.32 488.231731 
L 167.146667 486.965442 
L 167.973333 476.734312 
L 168.8 482.336916 
L 169.626667 486.941338 
L 170.453333 470.80743 
L 171.28 474.399985 
L 172.106667 470.837295 
L 172.933333 460.034713 
L 173.76 469.303608 
L 174.586667 445.398024 
L 175.413333 456.840805 
L 176.24 457.340912 
L 177.066667 435.726008 
L 177.893333 445.648544 
L 178.72 450.16089 
L 179.546667 443.550356 
L 180.373333 449.719105 
L 181.2 424.000352 
L 182.026667 423.811467 
L 182.853333 417.392297 
L 183.68 429.145618 
L 184.506667 430.184415 
L 185.333333 420.426421 
L 186.16 417.697211 
L 186.986667 405.230165 
L 187.813333 401.483904 
L 188.64 394.139546 
L 189.466667 399.240592 
L 190.293333 407.421169 
L 191.12 395.858128 
L 191.946667 393.770438 
L 192.773333 400.141818 
L 193.6 389.406669 
L 194.426667 387.817708 
L 195.253333 385.537655 
L 196.08 377.76705 
L 196.906667 375.636142 
L 197.733333 368.087115 
L 198.56 362.848479 
L 199.386667 373.026767 
L 200.213333 357.887077 
L 201.04 359.279131 
L 201.866667 361.223062 
L 202.693333 359.983925 
L 203.52 347.664011 
L 204.346667 356.900925 
L 206 339.286636 
L 206.826667 339.599264 
L 207.653333 341.531389 
L 208.48 335.521368 
L 209.306667 351.475576 
L 210.133333 320.668874 
L 210.96 312.654184 
L 211.786667 327.281303 
L 212.613333 318.584211 
L 213.44 299.47732 
L 214.266667 313.178373 
L 215.093333 313.681715 
L 215.92 302.102573 
L 216.746667 302.914492 
L 217.573333 297.364569 
L 218.4 289.536164 
L 219.226667 293.52051 
L 220.053333 283.046232 
L 220.88 287.228218 
L 221.706667 293.879715 
L 222.533333 275.199337 
L 223.36 280.002834 
L 224.186667 275.058381 
L 225.013333 274.831646 
L 225.84 271.484747 
L 226.666667 277.472172 
L 227.493333 260.877482 
L 228.32 262.246326 
L 229.146667 255.935265 
L 229.973333 254.429418 
L 230.8 251.716145 
L 231.626667 245.511439 
L 232.453333 234.68578 
L 233.28 236.729073 
L 234.106667 252.584613 
L 234.933333 233.710384 
L 235.76 242.623297 
L 236.586667 231.773785 
L 237.413333 233.882897 
L 238.24 227.129339 
L 239.066667 226.952683 
L 239.893333 221.134402 
L 240.72 211.352981 
L 241.546667 203.685359 
L 242.373333 210.106306 
L 243.2 208.807408 
L 244.026667 210.00479 
L 244.853333 191.982517 
L 245.68 204.15514 
L 246.506667 206.557304 
L 247.333333 192.632303 
L 248.16 192.285524 
L 248.986667 188.815841 
L 249.813333 181.03102 
L 250.64 183.320123 
L 251.466667 176.753529 
L 252.293333 178.920024 
L 253.12 164.914928 
L 253.946667 158.864919 
L 254.773333 172.32509 
L 255.6 161.048604 
L 256.426667 159.403701 
L 257.253333 153.982678 
L 258.08 154.282107 
L 258.906667 155.908238 
L 259.733333 149.102307 
L 260.56 144.138947 
L 261.386667 142.123225 
L 262.213333 141.224889 
L 263.866667 136.269048 
L 264.693333 127.818373 
L 265.52 129.506941 
L 266.346667 119.400751 
L 267.173333 123.089534 
L 268 115.310562 
L 268.826667 115.25407 
L 269.653333 117.279922 
L 270.48 115.97017 
L 271.306667 113.580674 
L 272.133333 124.476071 
L 272.96 116.804896 
L 273.786667 115.252699 
L 274.613333 119.860139 
L 275.44 115.810376 
L 276.266667 117.126424 
L 277.093333 116.551105 
L 277.92 115.646041 
L 278.746667 117.192026 
L 279.573333 115.088337 
L 280.4 121.109005 
L 281.226667 115.678254 
L 282.053333 112.425035 
L 282.88 117.398232 
L 283.706667 111.6 
L 284.533333 119.156016 
L 285.36 120.795255 
L 286.186667 118.207528 
L 287.013333 120.24457 
L 287.84 118.130149 
L 288.666667 122.837234 
L 289.493333 114.071326 
L 290.32 112.301001 
L 291.146667 117.666574 
L 291.973333 118.294129 
L 292.8 121.230564 
L 293.626667 115.335774 
L 294.453333 121.474129 
L 295.28 114.561739 
L 296.106667 119.906104 
L 296.933333 116.85601 
L 297.76 119.40659 
L 298.586667 115.737374 
L 299.413333 116.193027 
L 300.24 120.687232 
L 301.066667 122.483419 
L 301.893333 117.604339 
L 302.72 117.234394 
L 303.546667 117.616263 
L 304.373333 119.702501 
L 306.026667 116.401544 
L 306.853333 114.982435 
L 308.506667 117.851482 
L 308.506667 117.851482 
" clip-path="url(#p5e110943a1)" style="fill: none; stroke: #008000; stroke-width: 1.5; stroke-linecap: square"/>
   </g>
   <g id="line2d_25">
    <path d="M 144 127.004726 
L 308.506667 127.004726 
L 308.506667 127.004726 
" clip-path="url(#p5e110943a1)" style="fill: none; stroke: #800080; stroke-width: 1.5; stroke-linecap: square"/>
   </g>
   <g id="line2d_26">
    <path d="M 144 579.46805 
L 187.813333 419.597676 
L 188.64 415.607391 
L 189.466667 415.330921 
L 191.12 404.173168 
L 191.946667 406.482429 
L 192.773333 399.87231 
L 193.6 401.909785 
L 194.426667 398.264424 
L 195.253333 392.10707 
L 196.08 388.191968 
L 196.906667 388.47807 
L 197.733333 374.9958 
L 198.56 378.973691 
L 199.386667 377.876736 
L 200.213333 378.334297 
L 201.04 369.029741 
L 201.866667 366.890853 
L 202.693333 366.660379 
L 203.52 361.899992 
L 205.173333 356.933883 
L 206.826667 348.151147 
L 207.653333 348.610112 
L 208.48 344.304473 
L 209.306667 343.610475 
L 210.133333 337.900754 
L 210.96 335.118177 
L 211.786667 333.265932 
L 212.613333 327.853153 
L 213.44 329.747759 
L 215.093333 318.490631 
L 215.92 316.478189 
L 216.746667 315.036745 
L 217.573333 310.796028 
L 218.4 308.34946 
L 219.226667 303.540738 
L 220.053333 302.498694 
L 220.88 297.911729 
L 221.706667 298.004147 
L 222.533333 291.841807 
L 223.36 291.029546 
L 225.84 280.463527 
L 226.666667 278.170752 
L 228.32 272.250116 
L 229.146667 266.374057 
L 229.973333 266.38256 
L 230.8 263.930404 
L 231.626667 258.270184 
L 233.28 254.585553 
L 234.106667 250.45688 
L 234.933333 248.50063 
L 235.76 242.01121 
L 236.586667 239.703524 
L 237.413333 239.454988 
L 238.24 234.730344 
L 239.066667 231.872894 
L 239.893333 227.828774 
L 240.72 226.391511 
L 241.546667 221.204284 
L 242.373333 218.722395 
L 243.2 219.771005 
L 244.026667 213.564959 
L 244.853333 213.204073 
L 245.68 208.488805 
L 246.506667 204.609267 
L 247.333333 203.698999 
L 248.16 198.796121 
L 248.986667 197.603645 
L 249.813333 193.324985 
L 251.466667 187.984511 
L 252.293333 182.792684 
L 253.946667 179.318447 
L 254.773333 176.784343 
L 255.6 171.325018 
L 256.426667 170.125378 
L 257.253333 166.411987 
L 258.08 161.28878 
L 258.906667 160.665541 
L 260.56 155.017801 
L 261.386667 152.052312 
L 262.213333 147.619199 
L 263.04 146.736545 
L 263.866667 142.890564 
L 264.693333 140.127157 
L 265.52 136.383344 
L 266.346667 133.98685 
L 268 127.492728 
L 268.826667 126.803273 
L 269.653333 127.34024 
L 270.48 125.428476 
L 271.306667 127.308062 
L 272.96 127.160509 
L 273.786667 126.469087 
L 274.613333 127.28658 
L 275.44 126.840271 
L 276.266667 127.558078 
L 277.093333 126.789055 
L 277.92 127.637375 
L 278.746667 127.600792 
L 279.573333 125.79161 
L 280.4 126.037718 
L 281.226667 127.732215 
L 282.053333 126.535608 
L 282.88 126.69998 
L 283.706667 127.335163 
L 284.533333 126.297467 
L 285.36 127.280652 
L 286.186667 126.957335 
L 287.013333 125.92591 
L 287.84 127.181008 
L 288.666667 126.554715 
L 289.493333 127.719958 
L 290.32 127.02032 
L 291.146667 127.358202 
L 291.973333 126.935932 
L 292.8 126.299202 
L 293.626667 127.244816 
L 294.453333 125.8721 
L 295.28 127.734518 
L 296.106667 126.543861 
L 296.933333 126.717565 
L 297.76 126.6066 
L 298.586667 127.813416 
L 299.413333 126.326671 
L 300.24 126.613015 
L 301.066667 125.908177 
L 301.893333 126.746734 
L 302.72 126.907574 
L 303.546667 128.110138 
L 304.373333 127.123648 
L 305.2 127.507803 
L 306.026667 128.105235 
L 306.853333 126.369538 
L 307.68 127.831814 
L 308.506667 127.473829 
L 308.506667 127.473829 
" clip-path="url(#p5e110943a1)" style="fill: none; stroke: #ff0000; stroke-width: 1.5; stroke-linecap: square"/>
   </g>
   <g id="patch_3">
    <path d="M 144 640.8 
L 144 86.4 
" style="fill: none; stroke: #000000; stroke-width: 0.8; stroke-linejoin: miter; stroke-linecap: square"/>
   </g>
   <g id="patch_4">
    <path d="M 1036.8 640.8 
L 1036.8 86.4 
" style="fill: none; stroke: #000000; stroke-width: 0.8; stroke-linejoin: miter; stroke-linecap: square"/>
   </g>
   <g id="patch_5">
    <path d="M 144 640.8 
L 1036.8 640.8 
" style="fill: none; stroke: #000000; stroke-width: 0.8; stroke-linejoin: miter; stroke-linecap: square"/>
   </g>
   <g id="patch_6">
    <path d="M 144 86.4 
L 1036.8 86.4 
" style="fill: none; stroke: #000000; stroke-width: 0.8; stroke-linejoin: miter; stroke-linecap: square"/>
   </g>
   <g id="text_24">
    <!-- carracing.cma.16.64 (with simulated noise) -->
    <g transform="translate(459.805313 80.4) scale(0.12 -0.12)">
     <defs>
      <path id="DejaVuSans-6e" d="M 3513 2113 
L 3513 0 
L 2938 0 
L 2938 2094 
Q 2938 2591 2744 2837 
Q 2550 3084 2163 3084 
Q 1697 3084 1428 2787 
Q 1159 2491 1159 1978 
L 1159 0 
L 581 0 
L 581 3500 
L 1159 3500 
L 1159 2956 
Q 1366 3272 1645 3428 
Q 1925 3584 2291 3584 
Q 2894 3584 3203 3211 
Q 3513 2838 3513 2113 
z
" transform="scale(0.015625)"/>
      <path id="DejaVuSans-67" d="M 2906 1791 
Q 2906 2416 2648 2759 
Q 2391 3103 1925 3103 
Q 1463 3103 1205 2759 
Q 947 2416 947 1791 
Q 947 1169 1205 825 
Q 1463 481 1925 481 
Q 2391 481 2648 825 
Q 2906 1169 2906 1791 
z
M 3481 434 
Q 3481 -459 3084 -895 
Q 2688 -1331 1869 -1331 
Q 1566 -1331 1297 -1286 
Q 1028 -1241 775 -1147 
L 775 -588 
Q 1028 -725 1275 -790 
Q 1522 -856 1778 -856 
Q 2344 -856 2625 -561 
Q 2906 -266 2906 331 
L 2906 616 
Q 2728 306 2450 153 
Q 2172 0 1784 0 
Q 1141 0 747 490 
Q 353 981 353 1791 
Q 353 2603 747 3093 
Q 1141 3584 1784 3584 
Q 2172 3584 2450 3431 
Q 2728 3278 2906 2969 
L 2906 3500 
L 3481 3500 
L 3481 434 
z
" transform="scale(0.015625)"/>
      <path id="DejaVuSans-2e" d="M 684 794 
L 1344 794 
L 1344 0 
L 684 0 
L 684 794 
z
" transform="scale(0.015625)"/>
      <path id="DejaVuSans-68" d="M 3513 2113 
L 3513 0 
L 2938 0 
L 2938 2094 
Q 2938 2591 2744 2837 
Q 2550 3084 2163 3084 
Q 1697 3084 1428 2787 
Q 1159 2491 1159 1978 
L 1159 0 
L 581 0 
L 581 4863 
L 1159 4863 
L 1159 2956 
Q 1366 3272 1645 3428 
Q 1925 3584 2291 3584 
Q 2894 3584 3203 3211 
Q 3513 2838 3513 2113 
z
" transform="scale(0.015625)"/>
     </defs>
     <use xlink:href="#DejaVuSans-63"/>
     <use xlink:href="#DejaVuSans-61" transform="translate(54.980469 0)"/>
     <use xlink:href="#DejaVuSans-72" transform="translate(116.259766 0)"/>
     <use xlink:href="#DejaVuSans-72" transform="translate(155.623047 0)"/>
     <use xlink:href="#DejaVuSans-61" transform="translate(196.736328 0)"/>
     <use xlink:href="#DejaVuSans-63" transform="translate(258.015625 0)"/>
     <use xlink:href="#DejaVuSans-69" transform="translate(312.996094 0)"/>
     <use xlink:href="#DejaVuSans-6e" transform="translate(340.779297 0)"/>
     <use xlink:href="#DejaVuSans-67" transform="translate(404.158203 0)"/>
     <use xlink:href="#DejaVuSans-2e" transform="translate(467.634766 0)"/>
     <use xlink:href="#DejaVuSans-63" transform="translate(499.421875 0)"/>
     <use xlink:href="#DejaVuSans-6d" transform="translate(554.402344 0)"/>
     <use xlink:href="#DejaVuSans-61" transform="translate(651.814453 0)"/>
     <use xlink:href="#DejaVuSans-2e" transform="translate(713.09375 0)"/>
     <use xlink:href="#DejaVuSans-31" transform="translate(744.880859 0)"/>
     <use xlink:href="#DejaVuSans-36" transform="translate(808.503906 0)"/>
     <use xlink:href="#DejaVuSans-2e" transform="translate(872.126953 0)"/>
     <use xlink:href="#DejaVuSans-36" transform="translate(903.914062 0)"/>
     <use xlink:href="#DejaVuSans-34" transform="translate(967.537109 0)"/>
     <use xlink:href="#DejaVuSans-20" transform="translate(1031.160156 0)"/>
     <use xlink:href="#DejaVuSans-28" transform="translate(1062.947266 0)"/>
     <use xlink:href="#DejaVuSans-77" transform="translate(1101.960938 0)"/>
     <use xlink:href="#DejaVuSans-69" transform="translate(1183.748047 0)"/>
     <use xlink:href="#DejaVuSans-74" transform="translate(1211.53125 0)"/>
     <use xlink:href="#DejaVuSans-68" transform="translate(1250.740234 0)"/>
     <use xlink:href="#DejaVuSans-20" transform="translate(1314.119141 0)"/>
     <use xlink:href="#DejaVuSans-73" transform="translate(1345.90625 0)"/>
     <use xlink:href="#DejaVuSans-69" transform="translate(1398.005859 0)"/>
     <use xlink:href="#DejaVuSans-6d" transform="translate(1425.789062 0)"/>
     <use xlink:href="#DejaVuSans-75" transform="translate(1523.201172 0)"/>
     <use xlink:href="#DejaVuSans-6c" transform="translate(1586.580078 0)"/>
     <use xlink:href="#DejaVuSans-61" transform="translate(1614.363281 0)"/>
     <use xlink:href="#DejaVuSans-74" transform="translate(1675.642578 0)"/>
     <use xlink:href="#DejaVuSans-65" transform="translate(1714.851562 0)"/>
     <use xlink:href="#DejaVuSans-64" transform="translate(1776.375 0)"/>
     <use xlink:href="#DejaVuSans-20" transform="translate(1839.851562 0)"/>
     <use xlink:href="#DejaVuSans-6e" transform="translate(1871.638672 0)"/>
     <use xlink:href="#DejaVuSans-6f" transform="translate(1935.017578 0)"/>
     <use xlink:href="#DejaVuSans-69" transform="translate(1996.199219 0)"/>
     <use xlink:href="#DejaVuSans-73" transform="translate(2023.982422 0)"/>
     <use xlink:href="#DejaVuSans-65" transform="translate(2076.082031 0)"/>
     <use xlink:href="#DejaVuSans-29" transform="translate(2137.605469 0)"/>
    </g>
   </g>
   <g id="legend_1">
    <g id="patch_7">
     <path d="M 924.551562 167.790625 
L 1029.8 167.790625 
Q 1031.8 167.790625 1031.8 165.790625 
L 1031.8 93.4 
Q 1031.8 91.4 1029.8 91.4 
L 924.551562 91.4 
Q 922.551562 91.4 922.551562 93.4 
L 922.551562 165.790625 
Q 922.551562 167.790625 924.551562 167.790625 
z
" style="fill: #ffffff; opacity: 0.8; stroke: #cccccc; stroke-linejoin: miter"/>
    </g>
    <g id="line2d_27">
     <path d="M 926.551562 99.498437 
L 936.551562 99.498437 
L 946.551562 99.498437 
" style="fill: none; stroke: #0000ff; stroke-width: 1.5; stroke-linecap: square"/>
    </g>
    <g id="text_25">
     <!-- mean -->
     <g transform="translate(954.551562 102.998437) scale(0.1 -0.1)">
      <use xlink:href="#DejaVuSans-6d"/>
      <use xlink:href="#DejaVuSans-65" transform="translate(97.412109 0)"/>
      <use xlink:href="#DejaVuSans-61" transform="translate(158.935547 0)"/>
      <use xlink:href="#DejaVuSans-6e" transform="translate(220.214844 0)"/>
     </g>
    </g>
    <g id="line2d_28">
     <path d="M 926.551562 114.176562 
L 936.551562 114.176562 
L 946.551562 114.176562 
" style="fill: none; stroke: #ffa500; stroke-width: 1.5; stroke-linecap: square"/>
    </g>
    <g id="text_26">
     <!-- min -->
     <g transform="translate(954.551562 117.676562) scale(0.1 -0.1)">
      <use xlink:href="#DejaVuSans-6d"/>
      <use xlink:href="#DejaVuSans-69" transform="translate(97.412109 0)"/>
      <use xlink:href="#DejaVuSans-6e" transform="translate(125.195312 0)"/>
     </g>
    </g>
    <g id="line2d_29">
     <path d="M 926.551562 128.854687 
L 936.551562 128.854687 
L 946.551562 128.854687 
" style="fill: none; stroke: #008000; stroke-width: 1.5; stroke-linecap: square"/>
    </g>
    <g id="text_27">
     <!-- max -->
     <g transform="translate(954.551562 132.354687) scale(0.1 -0.1)">
      <defs>
       <path id="DejaVuSans-78" d="M 3513 3500 
L 2247 1797 
L 3578 0 
L 2900 0 
L 1881 1375 
L 863 0 
L 184 0 
L 1544 1831 
L 300 3500 
L 978 3500 
L 1906 2253 
L 2834 3500 
L 3513 3500 
z
" transform="scale(0.015625)"/>
      </defs>
      <use xlink:href="#DejaVuSans-6d"/>
      <use xlink:href="#DejaVuSans-61" transform="translate(97.412109 0)"/>
      <use xlink:href="#DejaVuSans-78" transform="translate(158.691406 0)"/>
     </g>
    </g>
    <g id="line2d_30">
     <path d="M 926.551562 143.532812 
L 936.551562 143.532812 
L 946.551562 143.532812 
" style="fill: none; stroke: #800080; stroke-width: 1.5; stroke-linecap: square"/>
    </g>
    <g id="text_28">
     <!-- requirement -->
     <g transform="translate(954.551562 147.032812) scale(0.1 -0.1)">
      <defs>
       <path id="DejaVuSans-71" d="M 947 1747 
Q 947 1113 1208 752 
Q 1469 391 1925 391 
Q 2381 391 2643 752 
Q 2906 1113 2906 1747 
Q 2906 2381 2643 2742 
Q 2381 3103 1925 3103 
Q 1469 3103 1208 2742 
Q 947 2381 947 1747 
z
M 2906 525 
Q 2725 213 2448 61 
Q 2172 -91 1784 -91 
Q 1150 -91 751 415 
Q 353 922 353 1747 
Q 353 2572 751 3078 
Q 1150 3584 1784 3584 
Q 2172 3584 2448 3432 
Q 2725 3281 2906 2969 
L 2906 3500 
L 3481 3500 
L 3481 -1331 
L 2906 -1331 
L 2906 525 
z
" transform="scale(0.015625)"/>
      </defs>
      <use xlink:href="#DejaVuSans-72"/>
      <use xlink:href="#DejaVuSans-65" transform="translate(38.863281 0)"/>
      <use xlink:href="#DejaVuSans-71" transform="translate(100.386719 0)"/>
      <use xlink:href="#DejaVuSans-75" transform="translate(163.863281 0)"/>
      <use xlink:href="#DejaVuSans-69" transform="translate(227.242188 0)"/>
      <use xlink:href="#DejaVuSans-72" transform="translate(255.025391 0)"/>
      <use xlink:href="#DejaVuSans-65" transform="translate(293.888672 0)"/>
      <use xlink:href="#DejaVuSans-6d" transform="translate(355.412109 0)"/>
      <use xlink:href="#DejaVuSans-65" transform="translate(452.824219 0)"/>
      <use xlink:href="#DejaVuSans-6e" transform="translate(514.347656 0)"/>
      <use xlink:href="#DejaVuSans-74" transform="translate(577.726562 0)"/>
     </g>
    </g>
    <g id="line2d_31">
     <path d="M 926.551562 158.210937 
L 936.551562 158.210937 
L 946.551562 158.210937 
" style="fill: none; stroke: #ff0000; stroke-width: 1.5; stroke-linecap: square"/>
    </g>
    <g id="text_29">
     <!-- best avg score -->
     <g transform="translate(954.551562 161.710937) scale(0.1 -0.1)">
      <defs>
       <path id="DejaVuSans-62" d="M 3116 1747 
Q 3116 2381 2855 2742 
Q 2594 3103 2138 3103 
Q 1681 3103 1420 2742 
Q 1159 2381 1159 1747 
Q 1159 1113 1420 752 
Q 1681 391 2138 391 
Q 2594 391 2855 752 
Q 3116 1113 3116 1747 
z
M 1159 2969 
Q 1341 3281 1617 3432 
Q 1894 3584 2278 3584 
Q 2916 3584 3314 3078 
Q 3713 2572 3713 1747 
Q 3713 922 3314 415 
Q 2916 -91 2278 -91 
Q 1894 -91 1617 61 
Q 1341 213 1159 525 
L 1159 0 
L 581 0 
L 581 4863 
L 1159 4863 
L 1159 2969 
z
" transform="scale(0.015625)"/>
      </defs>
      <use xlink:href="#DejaVuSans-62"/>
      <use xlink:href="#DejaVuSans-65" transform="translate(63.476562 0)"/>
      <use xlink:href="#DejaVuSans-73" transform="translate(125 0)"/>
      <use xlink:href="#DejaVuSans-74" transform="translate(177.099609 0)"/>
      <use xlink:href="#DejaVuSans-20" transform="translate(216.308594 0)"/>
      <use xlink:href="#DejaVuSans-61" transform="translate(248.095703 0)"/>
      <use xlink:href="#DejaVuSans-76" transform="translate(309.375 0)"/>
      <use xlink:href="#DejaVuSans-67" transform="translate(368.554688 0)"/>
      <use xlink:href="#DejaVuSans-20" transform="translate(432.03125 0)"/>
      <use xlink:href="#DejaVuSans-73" transform="translate(463.818359 0)"/>
      <use xlink:href="#DejaVuSans-63" transform="translate(515.917969 0)"/>
      <use xlink:href="#DejaVuSans-6f" transform="translate(570.898438 0)"/>
      <use xlink:href="#DejaVuSans-72" transform="translate(632.080078 0)"/>
      <use xlink:href="#DejaVuSans-65" transform="translate(670.943359 0)"/>
     </g>
    </g>
   </g>
  </g>
 </g>
 <defs>
  <clipPath id="p5e110943a1">
   <rect x="144" y="86.4" width="892.8" height="554.4"/>
  </clipPath>
 </defs>
</svg>
